<mxfile host="app.diagrams.net" modified="2021-11-01T08:47:57.623Z" agent="5.0 (Windows NT 10.0; Win64; x64) AppleWebKit/537.36 (KHTML, like Gecko) Chrome/95.0.4638.54 Safari/537.36" etag="bsFbZtpm1e0TsaJ-aiJA" version="15.6.3" type="github">
  <diagram id="wFE0QG_FPsp0jaGvCLVb" name="Page-1">
    <mxGraphModel dx="1422" dy="762" grid="1" gridSize="10" guides="1" tooltips="1" connect="1" arrows="1" fold="1" page="1" pageScale="1" pageWidth="850" pageHeight="1100" math="0" shadow="0">
      <root>
        <mxCell id="0" />
        <mxCell id="1" parent="0" />
        <mxCell id="pmgjxNVLRLeKllWQ8sx--84" value="&lt;font color=&quot;#66ff66&quot;&gt;系统模块&lt;/font&gt;" style="whiteSpace=wrap;html=1;align=center;sketch=0;strokeColor=#FFB570;" vertex="1" parent="1">
          <mxGeometry x="130" y="80" width="100" height="60" as="geometry" />
        </mxCell>
        <mxCell id="pmgjxNVLRLeKllWQ8sx--85" value="镇村管理&amp;nbsp; &amp;nbsp;管护设置&amp;nbsp; &amp;nbsp; 村民信息&amp;nbsp; &amp;nbsp; 抽厕记录&amp;nbsp; &amp;nbsp; 维修记录&amp;nbsp;" style="whiteSpace=wrap;html=1;sketch=0;strokeColor=#FFB570;" vertex="1" parent="1">
          <mxGeometry x="230" y="80" width="420" height="60" as="geometry" />
        </mxCell>
        <mxCell id="pmgjxNVLRLeKllWQ8sx--87" value="&lt;font color=&quot;#66ff66&quot;&gt;应用系统&lt;/font&gt;" style="whiteSpace=wrap;html=1;align=center;sketch=0;strokeColor=#FFB570;" vertex="1" parent="1">
          <mxGeometry x="130" y="140" width="100" height="60" as="geometry" />
        </mxCell>
        <mxCell id="pmgjxNVLRLeKllWQ8sx--88" value="" style="whiteSpace=wrap;html=1;sketch=0;strokeColor=#FFB570;" vertex="1" parent="1">
          <mxGeometry x="230" y="140" width="420" height="60" as="geometry" />
        </mxCell>
        <mxCell id="pmgjxNVLRLeKllWQ8sx--89" value="&lt;font color=&quot;#66ff66&quot;&gt;数据中心&lt;/font&gt;" style="whiteSpace=wrap;html=1;align=center;sketch=0;strokeColor=#FFB570;" vertex="1" parent="1">
          <mxGeometry x="130" y="200" width="100" height="60" as="geometry" />
        </mxCell>
        <mxCell id="pmgjxNVLRLeKllWQ8sx--90" value="" style="whiteSpace=wrap;html=1;sketch=0;strokeColor=#FFB570;" vertex="1" parent="1">
          <mxGeometry x="230" y="200" width="420" height="60" as="geometry" />
        </mxCell>
        <mxCell id="pmgjxNVLRLeKllWQ8sx--91" value="基础环境" style="whiteSpace=wrap;html=1;align=center;sketch=0;strokeColor=#FFB570;" vertex="1" parent="1">
          <mxGeometry x="130" y="260" width="100" height="80" as="geometry" />
        </mxCell>
        <mxCell id="pmgjxNVLRLeKllWQ8sx--92" value="" style="whiteSpace=wrap;html=1;sketch=0;strokeColor=#FFB570;" vertex="1" parent="1">
          <mxGeometry x="230" y="260" width="420" height="80" as="geometry" />
        </mxCell>
        <mxCell id="pmgjxNVLRLeKllWQ8sx--96" value="B/S系统" style="shape=ext;double=1;rounded=0;whiteSpace=wrap;html=1;sketch=0;fontColor=#000000;strokeColor=#FFB570;fillColor=#66FF66;verticalAlign=middle;" vertex="1" parent="1">
          <mxGeometry x="380" y="145" width="100" height="50" as="geometry" />
        </mxCell>
        <mxCell id="pmgjxNVLRLeKllWQ8sx--98" value="&lt;font color=&quot;#000000&quot;&gt;RIS&lt;/font&gt;" style="shape=datastore;whiteSpace=wrap;html=1;sketch=0;fontColor=#66FF66;strokeColor=#FFB570;fillColor=#66FF66;verticalAlign=middle;" vertex="1" parent="1">
          <mxGeometry x="340" y="210" width="50" height="40" as="geometry" />
        </mxCell>
        <mxCell id="pmgjxNVLRLeKllWQ8sx--99" value="&lt;font color=&quot;#000000&quot;&gt;PACS&lt;/font&gt;" style="shape=datastore;whiteSpace=wrap;html=1;sketch=0;fontColor=#66FF66;strokeColor=#FFB570;fillColor=#66FF66;verticalAlign=middle;" vertex="1" parent="1">
          <mxGeometry x="470" y="210" width="50" height="40" as="geometry" />
        </mxCell>
        <mxCell id="pmgjxNVLRLeKllWQ8sx--101" value="操作系统" style="aspect=fixed;perimeter=ellipsePerimeter;html=1;align=center;shadow=0;dashed=0;spacingTop=3;image;image=img/lib/active_directory/cd_dvd.svg;sketch=0;fontColor=#000000;strokeColor=#000000;fillColor=#FFFFFF;" vertex="1" parent="1">
          <mxGeometry x="250" y="264" width="50" height="50" as="geometry" />
        </mxCell>
        <mxCell id="pmgjxNVLRLeKllWQ8sx--102" value="服务器" style="aspect=fixed;perimeter=ellipsePerimeter;html=1;align=center;shadow=0;dashed=0;spacingTop=3;image;image=img/lib/active_directory/generic_server.svg;sketch=0;fontColor=#000000;strokeColor=#000000;fillColor=#FFFFFF;" vertex="1" parent="1">
          <mxGeometry x="352" y="264" width="28.000000000000004" height="50" as="geometry" />
        </mxCell>
        <mxCell id="pmgjxNVLRLeKllWQ8sx--103" value="服务器组" style="aspect=fixed;perimeter=ellipsePerimeter;html=1;align=center;shadow=0;dashed=0;spacingTop=3;image;image=img/lib/active_directory/mainframe_host.svg;sketch=0;fontColor=#000000;strokeColor=#000000;fillColor=#FFFFFF;" vertex="1" parent="1">
          <mxGeometry x="450" y="264" width="36" height="50" as="geometry" />
        </mxCell>
        <mxCell id="pmgjxNVLRLeKllWQ8sx--104" value="存储组" style="aspect=fixed;perimeter=ellipsePerimeter;html=1;align=center;shadow=0;dashed=0;spacingTop=3;image;image=img/lib/active_directory/databases.svg;sketch=0;fontColor=#000000;strokeColor=#000000;fillColor=#FFFFFF;" vertex="1" parent="1">
          <mxGeometry x="523" y="264" width="50" height="49" as="geometry" />
        </mxCell>
      </root>
    </mxGraphModel>
  </diagram>
</mxfile>
